<svg xmlns="http://www.w3.org/2000/svg" xmlns:xlink="http://www.w3.org/1999/xlink" viewBox="0,0,256,256" width="144px" height="144px" fill-rule="nonzero"><g fill-opacity="0.94118" fill="#000000" fill-rule="nonzero" stroke="none" stroke-width="1" stroke-linecap="butt" stroke-linejoin="miter" stroke-miterlimit="10" stroke-dasharray="" stroke-dashoffset="0" font-family="none" font-weight="none" font-size="none" text-anchor="none" style="mix-blend-mode: normal"><path d="M0,256v-256h256v256z" id="bgRectangle"></path></g><g fill="#b21414" fill-rule="nonzero" stroke="none" stroke-width="1" stroke-linecap="butt" stroke-linejoin="miter" stroke-miterlimit="10" stroke-dasharray="" stroke-dashoffset="0" font-family="none" font-weight="none" font-size="none" text-anchor="none" style="mix-blend-mode: normal"><g transform="scale(5.33333,5.33333)"><path d="M16.5,5c-3.584,0 -6.5,2.916 -6.5,6.5v30c0,0.563 0.31541,1.07994 0.81641,1.33594c0.501,0.257 1.10255,0.20986 1.56055,-0.11914l9.66211,-6.95703c-0.015,-0.253 -0.03906,-0.50277 -0.03906,-0.75977c0,-7.168 5.832,-13 13,-13c1.034,0 2.035,0.13428 3,0.36328v-10.86328c0,-3.584 -2.916,-6.5 -6.5,-6.5zM35,24c-6.075,0 -11,4.925 -11,11c0,6.075 4.925,11 11,11c6.075,0 11,-4.925 11,-11c0,-6.075 -4.925,-11 -11,-11zM35,28c0.48,0 0.90845,0.30577 1.06445,0.75977l1.11328,3.24023h3.69727c0.483,0 0.91241,0.30862 1.06641,0.76563c0.154,0.458 -0.00172,0.96386 -0.38672,1.25586l-2.99414,2.27148l1.01367,3.24609c0.146,0.466 -0.02583,0.97191 -0.42383,1.25391c-0.195,0.138 -0.42339,0.20703 -0.65039,0.20703c-0.237,0 -0.47483,-0.07461 -0.67383,-0.22461l-2.82617,-2.11523l-2.82617,2.11523c-0.391,0.293 -0.92522,0.30153 -1.32422,0.01953c-0.398,-0.282 -0.56983,-0.78986 -0.42383,-1.25586l1.01367,-3.24414l-2.99414,-2.27344c-0.385,-0.292 -0.54072,-0.79591 -0.38672,-1.25391c0.155,-0.458 0.58341,-0.76758 1.06641,-0.76758h3.69727l1.11328,-3.24023c0.156,-0.454 0.58445,-0.75977 1.06445,-0.75977z"></path></g></g></svg>